# xmcd
# 
# Track frame offsets:
#     150
#     11890
#     24912
#     35235
#     48528
#     60225
#     71746
#     81446
#     95199
#     107951
#     119677
#     133256
#     145474
#     157864
#     172112
#     184456
#     196299
#     208117
#     219982
#     235236
# 
# Disc length: 3293
# 
# Revision: 0
# Processed by: cddbd v1.5.2PL0 Copyright (c) Steve Scherf et al.
# Submitted via: fre:ac v1.0.31
# 
DISCID=3a0cdb14
DTITLE=Various Artist - Country and Western No.2
DYEAR=2017
DGENRE=Country
TTITLE0=The Yellow Rose Of Texas
TTITLE1=Three Bells
TTITLE2=North Wind
TTITLE3=Hey Good Lookin'
TTITLE4=I Wald The Line
TTITLE5=The Battle Of New Orleans
TTITLE6=Humpt Dumpty Heart
TTITLE7=Slow Poke
TTITLE8=Tennessee Saturday Night
TTITLE9=16 Tons
TTITLE10=I'm Going Back To Old Kentucky
TTITLE11=What A Friend We Have In Jesus
TTITLE12=Lost Highway
TTITLE13=Remember Me
TTITLE14=Crazy
TTITLE15=I Really Don't Want To Know
TTITLE16=The Waltz Of The Wind
TTITLE17=Long Gone Lonesome Blues
TTITLE18=Blue Yodel No. 1 (T for Texas)
TTITLE19=That's All Right
EXTD=
EXTT0=
EXTT1=
EXTT2=
EXTT3=
EXTT4=
EXTT5=
EXTT6=
EXTT7=
EXTT8=
EXTT9=
EXTT10=
EXTT11=
EXTT12=
EXTT13=
EXTT14=
EXTT15=
EXTT16=
EXTT17=
EXTT18=
EXTT19=
PLAYORDER=
